<svg width="28" height="28" viewBox="0 0 28 28" fill="none" xmlns="http://www.w3.org/2000/svg">
<path fill-rule="evenodd" clip-rule="evenodd" d="M0 14C0 6.26801 6.26801 0 14 0C21.732 0 28 6.26801 28 14C28 21.732 21.732 28 14 28C6.26801 28 0 21.732 0 14ZM14 1.64706C7.17766 1.64706 1.64706 7.17766 1.64706 14C1.64706 20.8223 7.17766 26.3529 14 26.3529C20.8223 26.3529 26.3529 20.8223 26.3529 14C26.3529 7.17766 20.8223 1.64706 14 1.64706ZM9.29412 11.0588H7.41176V9.41177H9.29412V11.0588ZM20.5882 11.0588H18.7059V9.41177H20.5882V11.0588ZM8.51765 15.6706L9.01177 16.3294C11.5059 19.6549 16.4941 19.6549 18.9882 16.3294L19.4824 15.6706L20.8 16.6588L20.3059 17.3176C17.1529 21.5216 10.8471 21.5216 7.69412 17.3176L7.2 16.6588L8.51765 15.6706Z" fill="#849422"/>
</svg>
