<svg width="28" height="28" viewBox="0 0 28 28" fill="none" xmlns="http://www.w3.org/2000/svg">
<path fill-rule="evenodd" clip-rule="evenodd" d="M10.2353 1.64706C7.57055 1.64706 5.41177 3.80521 5.41177 6.46691C5.41177 9.1286 7.57055 11.2868 10.2353 11.2868C12.9 11.2868 15.0588 9.1286 15.0588 6.46691C15.0588 3.80521 12.9 1.64706 10.2353 1.64706ZM3.76471 6.46691C3.76471 2.89455 6.66192 0 10.2353 0C13.8087 0 16.7059 2.89455 16.7059 6.46691C16.7059 10.0393 13.8087 12.9338 10.2353 12.9338C6.66192 12.9338 3.76471 10.0393 3.76471 6.46691ZM16.9412 12.1176C16.9412 9.58364 18.9954 7.52941 21.5294 7.52941C24.0634 7.52941 26.1176 9.58364 26.1176 12.1176C26.1176 14.6517 24.0634 16.7059 21.5294 16.7059C18.9954 16.7059 16.9412 14.6517 16.9412 12.1176ZM21.5294 9.17647C19.905 9.17647 18.5882 10.4933 18.5882 12.1176C18.5882 13.742 19.905 15.0588 21.5294 15.0588C23.1538 15.0588 24.4706 13.742 24.4706 12.1176C24.4706 10.4933 23.1538 9.17647 21.5294 9.17647ZM6.47059 18.5772C3.80644 18.5772 1.64706 20.736 1.64706 23.3998V26.3358H18.8235V23.3998C18.8235 20.736 16.6641 18.5772 14 18.5772H6.47059ZM0 23.3998C0 19.826 2.89716 16.9301 6.47059 16.9301H14C17.5734 16.9301 20.4706 19.826 20.4706 23.3998V27.9828H0V23.3998ZM26.3529 24.3529C26.3529 22.2088 24.6148 20.4706 22.4706 20.4706V18.8235C25.5244 18.8235 28 21.2991 28 24.3529V28H22.4706V26.3529H26.3529V24.3529Z" fill="#849422"/>
</svg>
