<svg width="14" height="16" viewBox="0 0 14 16" fill="none" xmlns="http://www.w3.org/2000/svg">
<path fill-rule="evenodd" clip-rule="evenodd" d="M1.58937 1.00418C1.27187 1.00418 1.01449 1.25895 1.01449 1.57322V5.32218H0V1.57322C0 0.704355 0.711586 0 1.58937 0H10.4565L14 3.50751V5.32218H12.9855V3.92345L10.0363 1.00418H1.58937ZM10.7536 9.57322V11.749H9.73913V6.39331H10.7536V6.42678H12.9517V7.43096H10.7536V8.56904H11.8696V9.57322H10.7536ZM1.08213 6.42678H2.6715C3.54928 6.42678 4.26087 7.13113 4.26087 8C4.26087 8.86887 3.54928 9.57322 2.6715 9.57322H2.09662V11.749H1.08213V6.42678ZM2.09662 8.56904H2.6715C2.98899 8.56904 3.24638 8.31427 3.24638 8C3.24638 7.68573 2.98899 7.43096 2.6715 7.43096H2.09662V8.56904ZM5.41063 6.42678H7C7.87779 6.42678 8.58937 7.13113 8.58937 8V10.1423C8.58937 11.0111 7.87779 11.7155 7 11.7155H5.41063V6.42678ZM6.42512 7.43096H7C7.3175 7.43096 7.57488 7.68573 7.57488 8V10.1423C7.57488 10.4565 7.3175 10.7113 7 10.7113H6.42512V7.43096ZM0 14.4268V12.8201H1.01449V14.4268C1.01449 14.741 1.27187 14.9958 1.58937 14.9958H12.4106C12.7281 14.9958 12.9855 14.741 12.9855 14.4268V12.8201H14V14.4268C14 15.2956 13.2884 16 12.4106 16H1.58937C0.711586 16 0 15.2956 0 14.4268Z" fill="#849422"/>
</svg>
